<?xml version="1.0" encoding="UTF-8" standalone="no"?>
<!DOCTYPE svg PUBLIC "-//W3C//DTD SVG 1.1//EN"
 "http://www.w3.org/Graphics/SVG/1.1/DTD/svg11.dtd">
<!-- Generated by graphviz version 2.47.0 (20210316.0004)
 -->
<!-- Title: dependencies Pages: 1 -->
<svg width="899pt" height="284pt"
 viewBox="0.00 0.00 899.00 284.00" xmlns="http://www.w3.org/2000/svg" xmlns:xlink="http://www.w3.org/1999/xlink">
<g id="graph0" class="graph" transform="scale(1 1) rotate(0) translate(4 280)">
<title>dependencies</title>
<polygon fill="white" stroke="transparent" points="-4,4 -4,-280 895,-280 895,4 -4,4"/>
<text text-anchor="start" x="424.51" y="-42.4" font-family="Times-12" font-weight="bold" font-size="14.00">Legend</text>
<polygon fill="#ffffb3" stroke="transparent" points="211.5,-10 211.5,-30 231.5,-30 231.5,-10 211.5,-10"/>
<text text-anchor="start" x="235.13" y="-15.4" font-family="Times-12" font-size="14.00"> &#160;Declarations</text>
<polygon fill="#8dd3c7" stroke="transparent" points="324.5,-10 324.5,-30 344.5,-30 344.5,-10 324.5,-10"/>
<text text-anchor="start" x="348.23" y="-15.4" font-family="Times-12" font-size="14.00"> &#160;Module</text>
<polygon fill="#80b1d3" stroke="transparent" points="410.5,-10 410.5,-30 430.5,-30 430.5,-10 410.5,-10"/>
<text text-anchor="start" x="434.28" y="-15.4" font-family="Times-12" font-size="14.00"> &#160;Bootstrap</text>
<polygon fill="#fdb462" stroke="transparent" points="507.5,-10 507.5,-30 527.5,-30 527.5,-10 507.5,-10"/>
<text text-anchor="start" x="531.17" y="-15.4" font-family="Times-12" font-size="14.00"> &#160;Providers</text>
<polygon fill="#fb8072" stroke="transparent" points="603.5,-10 603.5,-30 623.5,-30 623.5,-10 603.5,-10"/>
<text text-anchor="start" x="627.23" y="-15.4" font-family="Times-12" font-size="14.00"> &#160;Exports</text>
<g id="clust1" class="cluster">
<title>cluster_AppModule</title>
<polygon fill="none" stroke="black" stroke-dasharray="1,5" points="8,-70 8,-268 883,-268 883,-70 8,-70"/>
</g>
<g id="clust2" class="cluster">
<title>cluster_AppModule_declarations</title>
<polygon fill="none" stroke="black" points="443,-78 443,-130 875,-130 875,-78 443,-78"/>
</g>
<g id="clust9" class="cluster">
<title>cluster_AppModule_providers</title>
<polygon fill="none" stroke="black" points="285,-78 285,-130 435,-130 435,-78 285,-78"/>
</g>
<g id="clust6" class="cluster">
<title>cluster_AppModule_imports</title>
<polygon fill="none" stroke="black" points="16,-78 16,-130 277,-130 277,-78 16,-78"/>
</g>
<g id="clust8" class="cluster">
<title>cluster_AppModule_bootstrap</title>
<polygon fill="none" stroke="black" points="383,-208 383,-260 507,-260 507,-208 383,-208"/>
</g>
<!-- AppComponent -->
<g id="node1" class="node">
<title>AppComponent</title>
<polygon fill="#ffffb3" stroke="black" points="866.94,-122 761.06,-122 761.06,-86 866.94,-86 866.94,-122"/>
<text text-anchor="middle" x="814" y="-99.8" font-family="Times,serif" font-size="14.00">AppComponent</text>
</g>
<!-- AppModule -->
<g id="node4" class="node">
<title>AppModule</title>
<polygon fill="#8dd3c7" stroke="black" points="486.66,-187 483.66,-191 462.66,-191 459.66,-187 403.34,-187 403.34,-151 486.66,-151 486.66,-187"/>
<text text-anchor="middle" x="445" y="-164.8" font-family="Times,serif" font-size="14.00">AppModule</text>
</g>
<!-- AppComponent&#45;&gt;AppModule -->
<g id="edge1" class="edge">
<title>AppComponent&#45;&gt;AppModule</title>
<path fill="none" stroke="black" d="M814,-122.28C814,-143.32 814,-175 814,-175 814,-175 496.97,-175 496.97,-175"/>
<polygon fill="black" stroke="black" points="496.97,-171.5 486.97,-175 496.97,-178.5 496.97,-171.5"/>
</g>
<!-- LoginComponent -->
<g id="node2" class="node">
<title>LoginComponent</title>
<polygon fill="#ffffb3" stroke="black" points="743.28,-122 628.72,-122 628.72,-86 743.28,-86 743.28,-122"/>
<text text-anchor="middle" x="686" y="-99.8" font-family="Times,serif" font-size="14.00">LoginComponent</text>
</g>
<!-- LoginComponent&#45;&gt;AppModule -->
<g id="edge2" class="edge">
<title>LoginComponent&#45;&gt;AppModule</title>
<path fill="none" stroke="black" d="M686,-122.02C686,-139.37 686,-163 686,-163 686,-163 496.7,-163 496.7,-163"/>
<polygon fill="black" stroke="black" points="496.7,-159.5 486.7,-163 496.7,-166.5 496.7,-159.5"/>
</g>
<!-- PagenotfoundComponent -->
<g id="node3" class="node">
<title>PagenotfoundComponent</title>
<polygon fill="#ffffb3" stroke="black" points="610.6,-122 451.4,-122 451.4,-86 610.6,-86 610.6,-122"/>
<text text-anchor="middle" x="531" y="-99.8" font-family="Times,serif" font-size="14.00">PagenotfoundComponent</text>
</g>
<!-- PagenotfoundComponent&#45;&gt;AppModule -->
<g id="edge3" class="edge">
<title>PagenotfoundComponent&#45;&gt;AppModule</title>
<path fill="none" stroke="black" d="M469.14,-122.11C469.14,-122.11 469.14,-140.99 469.14,-140.99"/>
<polygon fill="black" stroke="black" points="465.64,-140.99 469.14,-150.99 472.64,-140.99 465.64,-140.99"/>
</g>
<!-- AppComponent  -->
<g id="node7" class="node">
<title>AppComponent </title>
<polygon fill="#80b1d3" stroke="black" points="499.44,-252 390.56,-252 390.56,-216 499.44,-216 499.44,-252"/>
<text text-anchor="middle" x="445" y="-229.8" font-family="Times,serif" font-size="14.00">AppComponent </text>
</g>
<!-- AppModule&#45;&gt;AppComponent  -->
<g id="edge6" class="edge">
<title>AppModule&#45;&gt;AppComponent </title>
<path fill="none" stroke="black" stroke-dasharray="1,5" d="M445,-187.11C445,-187.11 445,-205.99 445,-205.99"/>
<polygon fill="black" stroke="black" points="441.5,-205.99 445,-215.99 448.5,-205.99 441.5,-205.99"/>
</g>
<!-- AppRoutingModule -->
<g id="node5" class="node">
<title>AppRoutingModule</title>
<polygon fill="#8dd3c7" stroke="black" points="269.27,-122 266.27,-126 245.27,-126 242.27,-122 140.73,-122 140.73,-86 269.27,-86 269.27,-122"/>
<text text-anchor="middle" x="205" y="-99.8" font-family="Times,serif" font-size="14.00">AppRoutingModule</text>
</g>
<!-- AppRoutingModule&#45;&gt;AppModule -->
<g id="edge4" class="edge">
<title>AppRoutingModule&#45;&gt;AppModule</title>
<path fill="none" stroke="black" d="M205,-122.02C205,-139.37 205,-163 205,-163 205,-163 393.2,-163 393.2,-163"/>
<polygon fill="black" stroke="black" points="393.2,-166.5 403.2,-163 393.2,-159.5 393.2,-166.5"/>
</g>
<!-- SharedModule -->
<g id="node6" class="node">
<title>SharedModule</title>
<polygon fill="#8dd3c7" stroke="black" points="122.42,-122 119.42,-126 98.42,-126 95.42,-122 23.58,-122 23.58,-86 122.42,-86 122.42,-122"/>
<text text-anchor="middle" x="73" y="-99.8" font-family="Times,serif" font-size="14.00">SharedModule</text>
</g>
<!-- SharedModule&#45;&gt;AppModule -->
<g id="edge5" class="edge">
<title>SharedModule&#45;&gt;AppModule</title>
<path fill="none" stroke="black" d="M73,-122.28C73,-143.32 73,-175 73,-175 73,-175 393.05,-175 393.05,-175"/>
<polygon fill="black" stroke="black" points="393.05,-178.5 403.05,-175 393.05,-171.5 393.05,-178.5"/>
</g>
<!-- MasterService -->
<g id="node8" class="node">
<title>MasterService</title>
<ellipse fill="#fdb462" stroke="black" cx="360" cy="-104" rx="66.61" ry="18"/>
<text text-anchor="middle" x="360" y="-99.8" font-family="Times,serif" font-size="14.00">MasterService</text>
</g>
<!-- MasterService&#45;&gt;AppModule -->
<g id="edge7" class="edge">
<title>MasterService&#45;&gt;AppModule</title>
<path fill="none" stroke="black" d="M414.99,-114.44C414.99,-114.44 414.99,-140.97 414.99,-140.97"/>
<polygon fill="black" stroke="black" points="411.49,-140.97 414.99,-150.97 418.49,-140.97 411.49,-140.97"/>
</g>
</g>
</svg>
